<svg width="880" height="84" viewBox="0 0 880 84" fill="none" xmlns="http://www.w3.org/2000/svg">
<g filter="url(#filter0_di_44_62)">
<rect x="20" y="10" width="134" height="44" rx="10" fill="white" fill-opacity="0.1"/>
<g clip-path="url(#clip0_44_62)">
<path d="M52 41H43C42.45 41 42 40.55 42 40V24C42 23.45 42.45 23 43 23H52V41Z" fill="white" fill-opacity="0.3"/>
<path d="M61 41H52V23H61C61.55 23 62 23.45 62 24V40C62 40.55 61.55 41 61 41Z" fill="white" fill-opacity="0.3"/>
<path d="M44 32H50" stroke="white" stroke-opacity="0.6" stroke-width="1.2" stroke-miterlimit="10"/>
<path d="M44 28H50" stroke="white" stroke-opacity="0.6" stroke-width="1.2" stroke-miterlimit="10"/>
<path d="M44 36H50" stroke="white" stroke-opacity="0.6" stroke-width="1.2" stroke-miterlimit="10"/>
<path d="M54 32H60" stroke="white" stroke-opacity="0.6" stroke-width="1.2" stroke-miterlimit="10"/>
<path d="M54 28H60" stroke="white" stroke-opacity="0.6" stroke-width="1.2" stroke-miterlimit="10"/>
<path d="M79.6616 37.2563C82.02 37.2563 83.7412 35.9087 84.0488 33.8799V33.8359H82.4229L82.4082 33.8652C82.1079 35.0591 81.0605 35.8062 79.6616 35.8062C77.7573 35.8062 76.5708 34.2314 76.5708 31.7266V31.7119C76.5708 29.1997 77.7573 27.625 79.6543 27.625C81.0459 27.625 82.1079 28.4673 82.4155 29.7637V29.7856H84.0415L84.0488 29.749C83.7705 27.647 81.9834 26.1748 79.6543 26.1748C76.7173 26.1748 74.8936 28.2988 74.8936 31.7119V31.7266C74.8936 35.1323 76.7246 37.2563 79.6616 37.2563ZM89.3955 37.1538C91.7246 37.1538 93.1528 35.5938 93.1528 33.0303V33.0156C93.1528 30.4521 91.7173 28.8921 89.3955 28.8921C87.0664 28.8921 85.6309 30.4595 85.6309 33.0156V33.0303C85.6309 35.5938 87.0591 37.1538 89.3955 37.1538ZM89.3955 35.8281C88.0259 35.8281 87.2568 34.7954 87.2568 33.0303V33.0156C87.2568 31.2505 88.0259 30.2178 89.3955 30.2178C90.7578 30.2178 91.5342 31.2505 91.5342 33.0156V33.0303C91.5342 34.7881 90.7578 35.8281 89.3955 35.8281ZM97.7012 37.1538C98.8584 37.1538 99.6641 36.6558 100.045 35.7988H100.169V37H101.751V29.0459H100.169V33.7114C100.169 34.9932 99.4883 35.7915 98.2139 35.7915C97.0493 35.7915 96.5659 35.1396 96.5659 33.8213V29.0459H94.9766V34.1948C94.9766 36.0771 95.9067 37.1538 97.7012 37.1538ZM104.044 37H105.633V32.2466C105.633 31.0967 106.461 30.3496 107.677 30.3496C107.977 30.3496 108.248 30.3862 108.534 30.4448V28.98C108.373 28.9434 108.094 28.9067 107.838 28.9067C106.776 28.9067 106.036 29.4048 105.75 30.2471H105.633V29.0459H104.044V37ZM112.782 37.1538C114.671 37.1538 116.078 36.1504 116.078 34.6782V34.6636C116.078 33.5137 115.345 32.8618 113.814 32.5029L112.555 32.2173C111.661 32.0049 111.295 31.6973 111.295 31.1992V31.1846C111.295 30.5474 111.925 30.1152 112.796 30.1152C113.69 30.1152 114.254 30.5327 114.408 31.0894V31.104H115.924V31.0967C115.785 29.8003 114.62 28.8921 112.804 28.8921C111.002 28.8921 109.713 29.8882 109.713 31.2725V31.2798C109.713 32.4443 110.409 33.1255 111.91 33.4697L113.177 33.7627C114.1 33.9751 114.474 34.312 114.474 34.8101V34.8247C114.474 35.4766 113.792 35.9233 112.811 35.9233C111.866 35.9233 111.288 35.5205 111.09 34.9199L111.083 34.9126H109.493V34.9199C109.647 36.2529 110.863 37.1538 112.782 37.1538ZM121.314 37.1538C123.351 37.1538 124.449 35.9819 124.713 34.9346L124.728 34.8687L123.197 34.876L123.167 34.9346C122.977 35.3447 122.369 35.8501 121.351 35.8501C120.04 35.8501 119.205 34.9639 119.176 33.4404H124.815V32.8838C124.815 30.4961 123.453 28.8921 121.234 28.8921C119.015 28.8921 117.579 30.5547 117.579 33.0376V33.0449C117.579 35.5645 118.985 37.1538 121.314 37.1538ZM121.241 30.1958C122.318 30.1958 123.116 30.8843 123.241 32.3052H119.198C119.337 30.9355 120.157 30.1958 121.241 30.1958ZM129.598 37.1538C131.488 37.1538 132.894 36.1504 132.894 34.6782V34.6636C132.894 33.5137 132.162 32.8618 130.631 32.5029L129.371 32.2173C128.478 32.0049 128.111 31.6973 128.111 31.1992V31.1846C128.111 30.5474 128.741 30.1152 129.613 30.1152C130.506 30.1152 131.07 30.5327 131.224 31.0894V31.104H132.74V31.0967C132.601 29.8003 131.437 28.8921 129.62 28.8921C127.818 28.8921 126.529 29.8882 126.529 31.2725V31.2798C126.529 32.4443 127.225 33.1255 128.727 33.4697L129.994 33.7627C130.917 33.9751 131.29 34.312 131.29 34.8101V34.8247C131.29 35.4766 130.609 35.9233 129.627 35.9233C128.683 35.9233 128.104 35.5205 127.906 34.9199L127.899 34.9126H126.31V34.9199C126.463 36.2529 127.679 37.1538 129.598 37.1538Z" fill="white"/>
</g>
</g>
<g clip-path="url(#clip1_44_62)">
<path d="M215 22C212.66 22 209.71 23.72 209.76 28.16L206.04 32.98C205.93 33.12 206.06 33.3 206.26 33.3L208.74 34.53C208.87 35.45 209.35 38.13 209.61 39.47C209.7 39.89 213.8 39.57 213.8 39.57L215 42" fill="white" fill-opacity="0.3"/>
<path fill-rule="evenodd" clip-rule="evenodd" d="M219.845 22.2022C219.957 21.8902 219.794 21.5468 219.482 21.4351C219.17 21.3234 218.827 21.4858 218.715 21.7978L217.695 24.6478C217.584 24.9598 217.746 25.3033 218.058 25.4149C218.37 25.5266 218.713 25.3642 218.825 25.0522L219.845 22.2022ZM226.049 25.2203C226.315 25.0218 226.369 24.6457 226.17 24.3804C225.972 24.1152 225.596 24.0611 225.33 24.2597L221.91 26.8197C221.645 27.0182 221.591 27.3943 221.79 27.6595C221.988 27.9248 222.364 27.9789 222.629 27.7803L226.049 25.2203ZM222.131 31.8261C222.156 31.4956 222.443 31.2474 222.774 31.2716L226.044 31.5116C226.374 31.5359 226.623 31.8234 226.598 32.1539C226.574 32.4844 226.286 32.7326 225.956 32.7084L222.686 32.4684C222.355 32.4441 222.107 32.1566 222.131 31.8261ZM215.72 37.31C215.389 37.31 215.12 37.5787 215.12 37.91C215.12 38.2414 215.389 38.51 215.72 38.51H218.35C218.681 38.51 218.95 38.2414 218.95 37.91C218.95 37.5787 218.681 37.31 218.35 37.31H215.72ZM215.12 35.33C215.12 34.9986 215.389 34.73 215.72 34.73H215.88C214.56 33.6226 212.754 31.193 214.23 29.25C215.67 27.36 218.4 27.36 219.84 29.25C221.315 31.1909 219.521 33.6245 218.198 34.73H218.35C218.681 34.73 218.95 34.9986 218.95 35.33C218.95 35.6613 218.681 35.93 218.35 35.93H215.72C215.389 35.93 215.12 35.6613 215.12 35.33ZM217.64 34.73V32.1748C217.919 31.9752 218.1 31.6488 218.1 31.28C218.1 30.6725 217.608 30.18 217 30.18C216.393 30.18 215.9 30.6725 215.9 31.28C215.9 31.6831 216.117 32.0355 216.44 32.227V34.73H217.64ZM216.973 31.1837C216.986 31.1823 216.999 31.1813 217.012 31.1807C217.008 31.1803 217.004 31.18 217 31.18C216.991 31.18 216.982 31.1813 216.973 31.1837Z" fill="white" fill-opacity="0.6"/>
<path d="M242.006 37H243.647V27.8447H246.965V26.4312H238.681V27.8447H242.006V37ZM250.466 37.1538C251.623 37.1538 252.429 36.6558 252.81 35.7988H252.934V37H254.516V29.0459H252.934V33.7114C252.934 34.9932 252.253 35.7915 250.979 35.7915C249.814 35.7915 249.331 35.1396 249.331 33.8213V29.0459H247.741V34.1948C247.741 36.0771 248.671 37.1538 250.466 37.1538ZM259.812 37.0513C260.119 37.0513 260.412 37.0146 260.668 36.9707V35.7036C260.449 35.7256 260.31 35.7329 260.068 35.7329C259.284 35.7329 258.962 35.3813 258.962 34.5244V30.2983H260.668V29.0459H258.962V27.0391H257.343V29.0459H256.098V30.2983H257.343V34.9053C257.343 36.436 258.061 37.0513 259.812 37.0513ZM265.803 37.1538C268.132 37.1538 269.56 35.5938 269.56 33.0303V33.0156C269.56 30.4521 268.125 28.8921 265.803 28.8921C263.474 28.8921 262.038 30.4595 262.038 33.0156V33.0303C262.038 35.5938 263.466 37.1538 265.803 37.1538ZM265.803 35.8281C264.433 35.8281 263.664 34.7954 263.664 33.0303V33.0156C263.664 31.2505 264.433 30.2178 265.803 30.2178C267.165 30.2178 267.941 31.2505 267.941 33.0156V33.0303C267.941 34.7881 267.165 35.8281 265.803 35.8281ZM271.457 37H273.046V32.2466C273.046 31.0967 273.874 30.3496 275.09 30.3496C275.39 30.3496 275.661 30.3862 275.947 30.4448V28.98C275.786 28.9434 275.507 28.9067 275.251 28.9067C274.189 28.9067 273.449 29.4048 273.164 30.2471H273.046V29.0459H271.457V37ZM278.291 27.625C278.833 27.625 279.287 27.1782 279.287 26.6362C279.287 26.0869 278.833 25.6401 278.291 25.6401C277.741 25.6401 277.294 26.0869 277.294 26.6362C277.294 27.1782 277.741 27.625 278.291 27.625ZM277.492 37H279.074V29.0459H277.492V37ZM283.571 37.1318C284.626 37.1318 285.461 36.6777 285.93 35.8721H286.054V37H287.629V31.5581C287.629 29.8882 286.501 28.8921 284.501 28.8921C282.692 28.8921 281.44 29.7637 281.25 31.0674L281.242 31.1187H282.773L282.78 31.0894C282.971 30.5254 283.549 30.2031 284.428 30.2031C285.505 30.2031 286.054 30.6865 286.054 31.5581V32.2612L283.901 32.3857C282.004 32.5029 280.935 33.3306 280.935 34.7515V34.7661C280.935 36.209 282.055 37.1318 283.571 37.1318ZM282.517 34.7002V34.6855C282.517 33.9678 283.015 33.5723 284.113 33.5063L286.054 33.3818V34.063C286.054 35.0884 285.183 35.8647 283.996 35.8647C283.139 35.8647 282.517 35.4326 282.517 34.7002ZM289.943 37H291.533V25.9258H289.943V37ZM296.792 37.1538C298.681 37.1538 300.087 36.1504 300.087 34.6782V34.6636C300.087 33.5137 299.355 32.8618 297.824 32.5029L296.564 32.2173C295.671 32.0049 295.305 31.6973 295.305 31.1992V31.1846C295.305 30.5474 295.935 30.1152 296.806 30.1152C297.7 30.1152 298.264 30.5327 298.417 31.0894V31.104H299.934V31.0967C299.794 29.8003 298.63 28.8921 296.813 28.8921C295.012 28.8921 293.723 29.8882 293.723 31.2725V31.2798C293.723 32.4443 294.418 33.1255 295.92 33.4697L297.187 33.7627C298.11 33.9751 298.483 34.312 298.483 34.8101V34.8247C298.483 35.4766 297.802 35.9233 296.821 35.9233C295.876 35.9233 295.297 35.5205 295.1 34.9199L295.092 34.9126H293.503V34.9199C293.657 36.2529 294.873 37.1538 296.792 37.1538Z" fill="white"/>
</g>
<g clip-path="url(#clip2_44_62)">
<path d="M379 40L367 40" stroke="white" stroke-opacity="0.6" stroke-width="1.2" stroke-linecap="round" stroke-linejoin="round"/>
<rect x="363" y="24" width="20" height="12" fill="white" fill-opacity="0.3" stroke="white" stroke-opacity="0.6" stroke-width="1.2" stroke-linecap="round" stroke-linejoin="round"/>
<path d="M396.326 37H402.917V35.5864H397.966V26.4312H396.326V37ZM405.642 27.625C406.184 27.625 406.638 27.1782 406.638 26.6362C406.638 26.0869 406.184 25.6401 405.642 25.6401C405.093 25.6401 404.646 26.0869 404.646 26.6362C404.646 27.1782 405.093 27.625 405.642 27.625ZM404.844 37H406.426V29.0459H404.844V37ZM410.93 37H412.622L415.493 29.0459H413.823L411.846 35.3887H411.721L409.736 29.0459H408.052L410.93 37ZM420.122 37.1538C422.158 37.1538 423.257 35.9819 423.521 34.9346L423.535 34.8687L422.004 34.876L421.975 34.9346C421.785 35.3447 421.177 35.8501 420.159 35.8501C418.848 35.8501 418.013 34.9639 417.983 33.4404H423.623V32.8838C423.623 30.4961 422.261 28.8921 420.042 28.8921C417.822 28.8921 416.387 30.5547 416.387 33.0376V33.0449C416.387 35.5645 417.793 37.1538 420.122 37.1538ZM420.049 30.1958C421.125 30.1958 421.924 30.8843 422.048 32.3052H418.005C418.145 30.9355 418.965 30.1958 420.049 30.1958ZM428.406 37.1538C430.295 37.1538 431.702 36.1504 431.702 34.6782V34.6636C431.702 33.5137 430.969 32.8618 429.438 32.5029L428.179 32.2173C427.285 32.0049 426.919 31.6973 426.919 31.1992V31.1846C426.919 30.5474 427.549 30.1152 428.42 30.1152C429.314 30.1152 429.878 30.5327 430.032 31.0894V31.104H431.548V31.0967C431.409 29.8003 430.244 28.8921 428.428 28.8921C426.626 28.8921 425.337 29.8882 425.337 31.2725V31.2798C425.337 32.4443 426.033 33.1255 427.534 33.4697L428.801 33.7627C429.724 33.9751 430.098 34.312 430.098 34.8101V34.8247C430.098 35.4766 429.417 35.9233 428.435 35.9233C427.49 35.9233 426.912 35.5205 426.714 34.9199L426.707 34.9126H425.117V34.9199C425.271 36.2529 426.487 37.1538 428.406 37.1538ZM436.543 37.0513C436.851 37.0513 437.144 37.0146 437.4 36.9707V35.7036C437.18 35.7256 437.041 35.7329 436.799 35.7329C436.016 35.7329 435.693 35.3813 435.693 34.5244V30.2983H437.4V29.0459H435.693V27.0391H434.075V29.0459H432.83V30.2983H434.075V34.9053C434.075 36.436 434.792 37.0513 436.543 37.0513ZM439.253 37H440.842V32.2466C440.842 31.0967 441.67 30.3496 442.886 30.3496C443.186 30.3496 443.457 30.3862 443.743 30.4448V28.98C443.582 28.9434 443.303 28.9067 443.047 28.9067C441.985 28.9067 441.245 29.4048 440.959 30.2471H440.842V29.0459H439.253V37ZM448.394 37.1538C450.43 37.1538 451.528 35.9819 451.792 34.9346L451.807 34.8687L450.276 34.876L450.247 34.9346C450.056 35.3447 449.448 35.8501 448.43 35.8501C447.119 35.8501 446.284 34.9639 446.255 33.4404H451.895V32.8838C451.895 30.4961 450.532 28.8921 448.313 28.8921C446.094 28.8921 444.658 30.5547 444.658 33.0376V33.0449C444.658 35.5645 446.064 37.1538 448.394 37.1538ZM448.32 30.1958C449.397 30.1958 450.195 30.8843 450.32 32.3052H446.277C446.416 30.9355 447.236 30.1958 448.32 30.1958ZM455.967 37.1318C457.021 37.1318 457.856 36.6777 458.325 35.8721H458.45V37H460.024V31.5581C460.024 29.8882 458.896 28.8921 456.897 28.8921C455.088 28.8921 453.835 29.7637 453.645 31.0674L453.638 31.1187H455.168L455.176 31.0894C455.366 30.5254 455.945 30.2031 456.824 30.2031C457.9 30.2031 458.45 30.6865 458.45 31.5581V32.2612L456.296 32.3857C454.399 32.5029 453.33 33.3306 453.33 34.7515V34.7661C453.33 36.209 454.451 37.1318 455.967 37.1318ZM454.912 34.7002V34.6855C454.912 33.9678 455.41 33.5723 456.509 33.5063L458.45 33.3818V34.063C458.45 35.0884 457.578 35.8647 456.392 35.8647C455.535 35.8647 454.912 35.4326 454.912 34.7002ZM462.266 37H463.855V32.1147C463.855 31.0747 464.565 30.2544 465.525 30.2544C466.462 30.2544 467.056 30.8257 467.056 31.7339V37H468.638V31.9683C468.638 31.0088 469.304 30.2544 470.315 30.2544C471.355 30.2544 471.853 30.7964 471.853 31.895V37H473.435V31.5142C473.435 29.8589 472.498 28.8921 470.894 28.8921C469.788 28.8921 468.872 29.4561 468.469 30.313H468.345C467.993 29.4561 467.224 28.8921 466.14 28.8921C465.1 28.8921 464.324 29.3975 463.972 30.269H463.855V29.0459H462.266V37ZM478.547 37.1538C480.437 37.1538 481.843 36.1504 481.843 34.6782V34.6636C481.843 33.5137 481.111 32.8618 479.58 32.5029L478.32 32.2173C477.427 32.0049 477.061 31.6973 477.061 31.1992V31.1846C477.061 30.5474 477.69 30.1152 478.562 30.1152C479.456 30.1152 480.02 30.5327 480.173 31.0894V31.104H481.689V31.0967C481.55 29.8003 480.386 28.8921 478.569 28.8921C476.768 28.8921 475.479 29.8882 475.479 31.2725V31.2798C475.479 32.4443 476.174 33.1255 477.676 33.4697L478.943 33.7627C479.866 33.9751 480.239 34.312 480.239 34.8101V34.8247C480.239 35.4766 479.558 35.9233 478.577 35.9233C477.632 35.9233 477.053 35.5205 476.855 34.9199L476.848 34.9126H475.259V34.9199C475.413 36.2529 476.628 37.1538 478.547 37.1538Z" fill="white"/>
</g>
<g clip-path="url(#clip3_44_62)">
<path fill-rule="evenodd" clip-rule="evenodd" d="M553.5 39H536.5C535.67 39 535 38.33 535 37.5V26.5C535 25.67 535.67 25 536.5 25H553.5C554.33 25 555 25.67 555 26.5V37.5C555 38.33 554.33 39 553.5 39Z" fill="white" fill-opacity="0.3"/>
<path d="M555 29H535V30H555V29Z" fill="white" fill-opacity="0.6"/>
<path d="M568.326 37H569.966V33.3892H572.442C574.515 33.3892 575.95 31.9756 575.95 29.9102V29.8955C575.95 27.8228 574.515 26.4312 572.442 26.4312H568.326V37ZM572.032 27.8154C573.453 27.8154 574.28 28.5845 574.28 29.9028V29.9175C574.28 31.2432 573.453 32.0122 572.032 32.0122H569.966V27.8154H572.032ZM577.884 37H579.473V32.2466C579.473 31.0967 580.301 30.3496 581.517 30.3496C581.817 30.3496 582.088 30.3862 582.374 30.4448V28.98C582.212 28.9434 581.934 28.9067 581.678 28.9067C580.616 28.9067 579.876 29.4048 579.59 30.2471H579.473V29.0459H577.884V37ZM584.717 27.625C585.259 27.625 585.713 27.1782 585.713 26.6362C585.713 26.0869 585.259 25.6401 584.717 25.6401C584.168 25.6401 583.721 26.0869 583.721 26.6362C583.721 27.1782 584.168 27.625 584.717 27.625ZM583.919 37H585.501V29.0459H583.919V37ZM591.163 37.1538C593.133 37.1538 594.268 36.0918 594.554 34.5464L594.568 34.4805H593.045L593.03 34.5171C592.774 35.374 592.159 35.8281 591.163 35.8281C589.852 35.8281 589.039 34.7588 589.039 33.001V32.9863C589.039 31.2725 589.837 30.2178 591.163 30.2178C592.217 30.2178 592.862 30.8037 593.038 31.5874L593.045 31.6094L594.568 31.6021V31.5654C594.349 30.02 593.155 28.8921 591.155 28.8921C588.833 28.8921 587.42 30.4668 587.42 32.9863V33.001C587.42 35.5718 588.841 37.1538 591.163 37.1538ZM597.198 27.625C597.74 27.625 598.194 27.1782 598.194 26.6362C598.194 26.0869 597.74 25.6401 597.198 25.6401C596.648 25.6401 596.202 26.0869 596.202 26.6362C596.202 27.1782 596.648 27.625 597.198 27.625ZM596.399 37H597.981V29.0459H596.399V37ZM600.296 37H601.885V32.3345C601.885 31.0527 602.61 30.2544 603.775 30.2544C604.939 30.2544 605.489 30.9062 605.489 32.2246V37H607.071V31.8511C607.071 29.9541 606.089 28.8921 604.31 28.8921C603.152 28.8921 602.391 29.4048 602.002 30.2544H601.885V29.0459H600.296V37ZM612.652 39.8052C614.908 39.8052 616.336 38.6479 616.336 36.8389V29.0459H614.754V30.3496H614.659C614.197 29.4561 613.333 28.9067 612.22 28.9067C610.154 28.9067 608.887 30.5107 608.887 32.7812V32.7959C608.887 35.0371 610.147 36.6118 612.19 36.6118C613.282 36.6118 614.161 36.1284 614.644 35.2642H614.761V36.8315C614.761 37.9155 613.985 38.5308 612.674 38.5308C611.597 38.5308 610.953 38.1426 610.821 37.5933L610.813 37.5786H609.209L609.195 37.5933C609.385 38.9189 610.63 39.8052 612.652 39.8052ZM612.63 35.3008C611.275 35.3008 610.513 34.2681 610.513 32.7886V32.7739C610.513 31.2944 611.275 30.2544 612.63 30.2544C613.97 30.2544 614.791 31.2944 614.791 32.7739V32.7886C614.791 34.2754 613.978 35.3008 612.63 35.3008Z" fill="white"/>
</g>
<g clip-path="url(#clip4_44_62)">
<path d="M680 34C681.105 34 682 33.1046 682 32C682 30.8954 681.105 30 680 30C678.895 30 678 30.8954 678 32C678 33.1046 678.895 34 680 34Z" fill="white" fill-opacity="0.5"/>
<path d="M688 34C689.105 34 690 33.1046 690 32C690 30.8954 689.105 30 688 30C686.895 30 686 30.8954 686 32C686 33.1046 686.895 34 688 34Z" fill="white" fill-opacity="0.4"/>
<path d="M672 34C673.105 34 674 33.1046 674 32C674 30.8954 673.105 30 672 30C670.895 30 670 30.8954 670 32C670 33.1046 670.895 34 672 34Z" fill="white" fill-opacity="0.6"/>
</g>
<g clip-path="url(#clip5_44_62)">
<path d="M768 35.2877L767.292 35.9948L773.296 41.9981L774.003 41.291L768 35.2877Z" stroke="white" stroke-opacity="0.6" stroke-width="1.2" stroke-linecap="round" stroke-linejoin="round"/>
<path d="M762 38C766.418 38 770 34.4183 770 30C770 25.5817 766.418 22 762 22C757.582 22 754 25.5817 754 30C754 34.4183 757.582 38 762 38Z" fill="white" fill-opacity="0.3" stroke="white" stroke-opacity="0.6" stroke-width="1.2" stroke-linecap="round" stroke-linejoin="round"/>
</g>
<g clip-path="url(#clip6_44_62)">
<path d="M858 28H838V42H858V28Z" fill="white" fill-opacity="0.3"/>
<path d="M848 36.5C844.96 36.5 842.5 38.96 842.5 42C842.51 42 853.5 42 853.5 42C853.5 38.96 851.04 36.5 848 36.5Z" fill="white" fill-opacity="0.6"/>
<path d="M848 36.5C849.519 36.5 850.75 35.2688 850.75 33.75C850.75 32.2312 849.519 31 848 31C846.481 31 845.25 32.2312 845.25 33.75C845.25 35.2688 846.481 36.5 848 36.5Z" fill="white" fill-opacity="0.6"/>
<path d="M844 22H852" stroke="white" stroke-opacity="0.6" stroke-width="1.2" stroke-miterlimit="10" stroke-linecap="round" stroke-linejoin="round"/>
<path d="M841 25H855" stroke="white" stroke-opacity="0.6" stroke-width="1.2" stroke-miterlimit="10" stroke-linecap="round" stroke-linejoin="round"/>
</g>
<defs>
<filter id="filter0_di_44_62" x="0" y="0" width="174" height="84" filterUnits="userSpaceOnUse" color-interpolation-filters="sRGB">
<feFlood flood-opacity="0" result="BackgroundImageFix"/>
<feColorMatrix in="SourceAlpha" type="matrix" values="0 0 0 0 0 0 0 0 0 0 0 0 0 0 0 0 0 0 127 0" result="hardAlpha"/>
<feOffset dy="10"/>
<feGaussianBlur stdDeviation="10"/>
<feColorMatrix type="matrix" values="0 0 0 0 0 0 0 0 0 0 0 0 0 0 0 0 0 0 0.1 0"/>
<feBlend mode="normal" in2="BackgroundImageFix" result="effect1_dropShadow_44_62"/>
<feBlend mode="normal" in="SourceGraphic" in2="effect1_dropShadow_44_62" result="shape"/>
<feColorMatrix in="SourceAlpha" type="matrix" values="0 0 0 0 0 0 0 0 0 0 0 0 0 0 0 0 0 0 127 0" result="hardAlpha"/>
<feMorphology radius="0.5" operator="erode" in="SourceAlpha" result="effect2_innerShadow_44_62"/>
<feOffset/>
<feComposite in2="hardAlpha" operator="arithmetic" k2="-1" k3="1"/>
<feColorMatrix type="matrix" values="0 0 0 0 1 0 0 0 0 1 0 0 0 0 1 0 0 0 0.2 0"/>
<feBlend mode="normal" in2="shape" result="effect2_innerShadow_44_62"/>
</filter>
<clipPath id="clip0_44_62">
<rect width="94" height="24" fill="white" transform="translate(40 20)"/>
</clipPath>
<clipPath id="clip1_44_62">
<rect width="97" height="24" fill="white" transform="translate(204 20)"/>
</clipPath>
<clipPath id="clip2_44_62">
<rect width="122" height="24" fill="white" transform="translate(361 20)"/>
</clipPath>
<clipPath id="clip3_44_62">
<rect width="85" height="24" fill="white" transform="translate(533 20)"/>
</clipPath>
<clipPath id="clip4_44_62">
<rect width="24" height="24" fill="white" transform="translate(668 20)"/>
</clipPath>
<clipPath id="clip5_44_62">
<rect width="24" height="24" fill="white" transform="translate(752 20)"/>
</clipPath>
<clipPath id="clip6_44_62">
<rect width="24" height="24" fill="white" transform="translate(836 20)"/>
</clipPath>
</defs>
</svg>
