<svg width="10" height="14" viewBox="0 0 10 14" fill="none" xmlns="http://www.w3.org/2000/svg">
<path fill-rule="evenodd" clip-rule="evenodd" d="M7.5 3C7.5 4.38071 6.38071 5.5 5 5.5C3.61929 5.5 2.5 4.38071 2.5 3C2.5 1.61929 3.61929 0.5 5 0.5C6.38071 0.5 7.5 1.61929 7.5 3ZM0.877544 11.0393L0.606873 10.819C1.45585 9.43548 3.10784 8.5 5.00002 8.5C7.76002 8.5 10 10.49 10 12.94C8.03002 13.39 6.31002 13.5 5.00002 13.5C4.20015 13.5 3.45201 13.4574 2.76231 13.389L2.2087 12.5299C1.85328 11.9784 1.40973 11.4725 0.877544 11.0393Z" fill="white" fill-opacity="0.3"/>
</svg>
